<svg width="106" height="31" viewBox="0 0 106 31" fill="none" xmlns="http://www.w3.org/2000/svg">
<g clip-path="url(#clip0_110_153)">
<path d="M13.1567 27.5362L9.43014 19.4054C9.36282 19.2585 9.3766 19.0872 9.46657 18.9529L15.9089 9.34045C16.1532 8.97604 15.8031 8.50724 15.3843 8.63791L0.416993 13.3086C0.313787 13.3408 0.20258 13.336 0.102515 13.2951L-7.4126 10.2207" stroke="black" stroke-width="4.06738"/>
</g>
<path d="M32.8865 7.176C34.3425 7.176 35.6385 7.36 36.7745 7.728C37.9105 8.08 38.8625 8.608 39.6305 9.312C40.4145 10 40.9985 10.84 41.3825 11.832C41.7825 12.808 41.9745 13.904 41.9585 15.12C41.9425 16.224 41.7345 17.304 41.3345 18.36C40.9505 19.416 40.3665 20.368 39.5825 21.216C38.7985 22.064 37.8065 22.744 36.6065 23.256C35.4225 23.752 34.0225 24 32.4065 24H25.9745L26.0465 22.944C26.5745 22.912 26.9585 22.8 27.1985 22.608C27.4385 22.416 27.5985 22.128 27.6785 21.744C27.7745 21.36 27.8305 20.872 27.8465 20.28L28.3985 10.296C28.4305 9.944 28.4545 9.608 28.4705 9.288C28.5025 8.952 28.5345 8.664 28.5665 8.424C28.2785 8.44 27.9745 8.456 27.6545 8.472C27.3345 8.488 27.0465 8.504 26.7905 8.52L26.8625 7.2L32.8865 7.176ZM32.7425 8.304C32.2145 8.304 31.8145 8.384 31.5425 8.544C31.2865 8.688 31.1105 8.944 31.0145 9.312C30.9185 9.68 30.8545 10.176 30.8225 10.8L30.2945 20.808C30.2785 21.24 30.2465 21.624 30.1985 21.96C30.1665 22.296 30.1345 22.568 30.1025 22.776C30.3905 22.776 30.6785 22.784 30.9665 22.8C31.2545 22.8 31.5345 22.8 31.8065 22.8C32.0945 22.8 32.3505 22.8 32.5745 22.8C33.9345 22.8 35.1025 22.456 36.0785 21.768C37.0705 21.08 37.8385 20.168 38.3825 19.032C38.9265 17.88 39.2065 16.616 39.2225 15.24C39.2705 13.048 38.7505 11.352 37.6625 10.152C36.5745 8.936 34.9345 8.32 32.7425 8.304ZM49.7379 11.736C50.6019 11.736 51.3859 11.944 52.0899 12.36C52.7939 12.76 53.3459 13.36 53.7459 14.16C54.1619 14.944 54.3699 15.896 54.3699 17.016C54.3699 18.296 54.1299 19.488 53.6499 20.592C53.1859 21.696 52.5139 22.584 51.6339 23.256C50.7539 23.928 49.6899 24.264 48.4419 24.264C47.3859 24.264 46.5059 24.024 45.8019 23.544C45.1139 23.064 44.6019 22.416 44.2659 21.6C43.9299 20.768 43.7619 19.856 43.7619 18.864C43.7619 17.568 44.0019 16.384 44.4819 15.312C44.9619 14.224 45.6499 13.36 46.5459 12.72C47.4419 12.064 48.5059 11.736 49.7379 11.736ZM49.3779 12.864C48.7379 12.848 48.1859 13.08 47.7219 13.56C47.2739 14.024 46.9219 14.656 46.6659 15.456C46.4099 16.256 46.2739 17.144 46.2579 18.12C46.2579 18.632 46.2899 19.184 46.3539 19.776C46.4339 20.352 46.5619 20.896 46.7379 21.408C46.9299 21.904 47.1859 22.312 47.5059 22.632C47.8259 22.952 48.2339 23.12 48.7299 23.136C49.2899 23.136 49.7619 22.968 50.1459 22.632C50.5459 22.28 50.8659 21.832 51.1059 21.288C51.3619 20.728 51.5459 20.136 51.6579 19.512C51.7859 18.888 51.8579 18.304 51.8739 17.76C51.8899 17.232 51.8659 16.688 51.8019 16.128C51.7379 15.568 51.6099 15.04 51.4179 14.544C51.2419 14.048 50.9859 13.648 50.6499 13.344C50.3299 13.024 49.9059 12.864 49.3779 12.864ZM60.8632 8.544L60.4072 12H63.9592L63.8632 13.152L60.3112 13.2C60.2472 13.84 60.1672 14.512 60.0712 15.216C59.9912 15.904 59.9192 16.592 59.8552 17.28C59.7912 17.952 59.7352 18.592 59.6872 19.2C59.6552 19.792 59.6392 20.312 59.6392 20.76C59.6392 21.032 59.6552 21.32 59.6872 21.624C59.7352 21.928 59.8392 22.184 59.9992 22.392C60.1592 22.584 60.4152 22.68 60.7672 22.68C60.9112 22.68 61.1032 22.648 61.3432 22.584C61.5832 22.52 61.8472 22.376 62.1352 22.152C62.4232 21.912 62.7112 21.544 62.9992 21.048L63.8152 21.576C63.3192 22.472 62.7592 23.144 62.1352 23.592C61.5272 24.04 60.8152 24.264 59.9992 24.264C59.2952 24.264 58.7512 24.12 58.3672 23.832C57.9832 23.528 57.7112 23.136 57.5512 22.656C57.3912 22.16 57.3192 21.632 57.3352 21.072C57.3352 20.496 57.3592 19.792 57.4072 18.96C57.4552 18.128 57.5272 17.224 57.6232 16.248C57.7192 15.256 57.8232 14.248 57.9352 13.224L55.8712 13.248L55.9912 12C57.1112 12 57.9432 11.704 58.4872 11.112C59.0312 10.504 59.4392 9.648 59.7112 8.544H60.8632ZM65.2318 30.12V29.112C65.6638 29.112 65.9758 28.976 66.1678 28.704C66.3598 28.448 66.4878 28.096 66.5518 27.648C66.6158 27.216 66.6718 26.72 66.7198 26.16C66.8478 24.624 66.9678 23.2 67.0798 21.888C67.2078 20.56 67.3118 19.392 67.3918 18.384C67.4878 17.36 67.5598 16.504 67.6078 15.816C67.6558 15.128 67.6798 14.64 67.6798 14.352C67.6798 14.048 67.6478 13.792 67.5838 13.584C67.5358 13.376 67.3838 13.272 67.1278 13.272C66.9038 13.272 66.6478 13.44 66.3598 13.776C66.0878 14.096 65.8318 14.656 65.5918 15.456L64.7038 15.24C64.7518 14.936 64.8478 14.592 64.9918 14.208C65.1518 13.808 65.3598 13.424 65.6158 13.056C65.8718 12.672 66.1838 12.36 66.5518 12.12C66.9198 11.864 67.3518 11.736 67.8478 11.736C68.5038 11.736 68.9758 11.96 69.2638 12.408C69.5678 12.84 69.7198 13.416 69.7198 14.136C69.7198 14.568 69.6958 14.976 69.6478 15.36C69.5998 15.744 69.5438 16.104 69.4798 16.44H69.5278C69.9598 15.144 70.4078 14.16 70.8718 13.488C71.3518 12.8 71.8398 12.336 72.3358 12.096C72.8318 11.856 73.3038 11.736 73.7518 11.736C74.4878 11.736 75.1038 11.944 75.5998 12.36C76.0958 12.76 76.4638 13.312 76.7038 14.016C76.9598 14.72 77.0878 15.504 77.0878 16.368C77.0878 17.904 76.8238 19.272 76.2958 20.472C75.7838 21.656 75.0078 22.584 73.9678 23.256C72.9438 23.928 71.6558 24.264 70.1038 24.264C69.9438 24.264 69.7758 24.256 69.5998 24.24C69.4238 24.24 69.2558 24.232 69.0958 24.216C69.0318 25.272 68.9838 26.104 68.9518 26.712C68.9198 27.336 68.8878 27.808 68.8558 28.128C68.8238 28.464 68.7918 28.728 68.7598 28.92C69.0158 28.904 69.2798 28.888 69.5518 28.872C69.8238 28.872 70.0718 28.864 70.2958 28.848V30.12H65.2318ZM70.4878 23.184C71.1118 23.184 71.6558 23.048 72.1198 22.776C72.5838 22.488 72.9758 22.112 73.2958 21.648C73.6158 21.168 73.8718 20.64 74.0638 20.064C74.2718 19.488 74.4158 18.904 74.4958 18.312C74.5758 17.72 74.6158 17.168 74.6158 16.656C74.6158 15.968 74.5678 15.368 74.4718 14.856C74.3758 14.344 74.2158 13.944 73.9918 13.656C73.7838 13.368 73.4878 13.224 73.1038 13.224C72.7198 13.224 72.3358 13.424 71.9518 13.824C71.5678 14.208 71.2158 14.744 70.8958 15.432C70.5758 16.12 70.2878 16.904 70.0318 17.784C69.7758 18.664 69.5838 19.592 69.4558 20.568C69.3918 20.936 69.3358 21.32 69.2878 21.72C69.2558 22.104 69.2238 22.512 69.1918 22.944C69.4158 23.024 69.6318 23.088 69.8398 23.136C70.0638 23.168 70.2798 23.184 70.4878 23.184ZM84.8221 11.736C85.4461 11.736 86.0141 11.832 86.5261 12.024C87.0541 12.2 87.4781 12.496 87.7981 12.912C88.1181 13.328 88.2781 13.888 88.2781 14.592C88.2781 15.248 88.0621 15.816 87.6301 16.296C87.1981 16.76 86.6381 17.144 85.9501 17.448C85.2621 17.752 84.5181 18 83.7181 18.192C82.9181 18.368 82.1501 18.504 81.4141 18.6C81.4141 19.56 81.5181 20.344 81.7261 20.952C81.9341 21.56 82.2221 22.008 82.5901 22.296C82.9741 22.584 83.4301 22.728 83.9581 22.728C84.3581 22.728 84.7741 22.64 85.2061 22.464C85.6541 22.288 86.0861 22.008 86.5021 21.624C86.9181 21.224 87.2941 20.688 87.6301 20.016L88.6141 20.544C88.1661 21.44 87.6781 22.168 87.1501 22.728C86.6221 23.272 86.0541 23.664 85.4461 23.904C84.8381 24.144 84.1821 24.264 83.4781 24.264C81.9741 24.264 80.8381 23.808 80.0701 22.896C79.3021 21.968 78.9181 20.688 78.9181 19.056C78.9181 18.192 79.0381 17.328 79.2781 16.464C79.5181 15.584 79.8781 14.792 80.3581 14.088C80.8381 13.368 81.4541 12.8 82.2061 12.384C82.9581 11.952 83.8301 11.736 84.8221 11.736ZM84.5101 12.816C83.8381 12.816 83.2861 13.048 82.8541 13.512C82.4381 13.96 82.1181 14.544 81.8941 15.264C81.6701 15.984 81.5261 16.728 81.4621 17.496C82.3101 17.368 83.0781 17.168 83.7661 16.896C84.4541 16.608 84.9981 16.256 85.3981 15.84C85.8141 15.408 86.0141 14.928 85.9981 14.4C85.9981 13.92 85.8621 13.536 85.5901 13.248C85.3341 12.96 84.9741 12.816 84.5101 12.816ZM100.653 24.264C99.8688 24.264 99.3328 24.056 99.0448 23.64C98.7568 23.208 98.6128 22.6 98.6128 21.816C98.6128 21.368 98.6448 20.84 98.7088 20.232C98.7888 19.624 98.8688 18.992 98.9488 18.336C99.0448 17.664 99.1248 17 99.1888 16.344C99.2688 15.688 99.3088 15.088 99.3088 14.544C99.3088 14.336 99.2768 14.136 99.2128 13.944C99.1648 13.736 99.0688 13.568 98.9248 13.44C98.7968 13.296 98.5968 13.224 98.3248 13.224C97.9408 13.224 97.5408 13.424 97.1248 13.824C96.7248 14.208 96.3408 14.736 95.9728 15.408C95.6208 16.08 95.3008 16.824 95.0128 17.64C94.7248 18.456 94.4928 19.296 94.3168 20.16C94.1568 21.008 94.0768 21.816 94.0768 22.584C94.0768 22.808 94.0768 23.048 94.0768 23.304C94.0928 23.56 94.1088 23.792 94.1248 24H91.7488C91.7328 23.808 91.7248 23.664 91.7248 23.568C91.7248 23.456 91.7248 23.336 91.7248 23.208C91.7248 22.904 91.7408 22.56 91.7728 22.176C91.8048 21.776 91.8528 21.288 91.9168 20.712C91.9968 20.136 92.0848 19.424 92.1808 18.576C92.2608 17.808 92.3248 17.184 92.3728 16.704C92.4368 16.208 92.4848 15.808 92.5168 15.504C92.5648 15.184 92.5968 14.928 92.6128 14.736C92.6288 14.544 92.6367 14.368 92.6367 14.208C92.6367 13.92 92.5968 13.696 92.5168 13.536C92.4368 13.36 92.2928 13.272 92.0848 13.272C91.8608 13.272 91.6048 13.44 91.3168 13.776C91.0288 14.096 90.7648 14.656 90.5248 15.456L89.6368 15.24C89.7008 14.936 89.8048 14.592 89.9488 14.208C90.1088 13.808 90.3168 13.424 90.5728 13.056C90.8288 12.672 91.1408 12.36 91.5088 12.12C91.8768 11.864 92.3088 11.736 92.8048 11.736C93.2848 11.736 93.6608 11.856 93.9328 12.096C94.2048 12.336 94.3968 12.664 94.5088 13.08C94.6208 13.496 94.6688 13.976 94.6528 14.52C94.6368 14.92 94.5968 15.288 94.5328 15.624C94.4688 15.96 94.4128 16.28 94.3648 16.584H94.4128C94.9088 15.304 95.4048 14.312 95.9008 13.608C96.4128 12.904 96.9248 12.416 97.4368 12.144C97.9488 11.872 98.4528 11.736 98.9488 11.736C99.6048 11.736 100.125 11.888 100.509 12.192C100.909 12.48 101.197 12.872 101.373 13.368C101.549 13.864 101.637 14.424 101.637 15.048C101.637 15.832 101.581 16.648 101.469 17.496C101.357 18.344 101.245 19.144 101.133 19.896C101.021 20.648 100.965 21.272 100.965 21.768C100.965 22.056 100.997 22.288 101.061 22.464C101.141 22.64 101.293 22.728 101.517 22.728C101.757 22.728 102.013 22.568 102.285 22.248C102.573 21.928 102.837 21.36 103.077 20.544L103.941 20.784C103.893 21.072 103.789 21.416 103.629 21.816C103.469 22.216 103.253 22.6 102.981 22.968C102.709 23.336 102.381 23.648 101.997 23.904C101.613 24.144 101.165 24.264 100.653 24.264Z" fill="black"/>
<defs>
<clipPath id="clip0_110_153">
<rect width="18.0625" height="17.9297" fill="white" transform="translate(0 6.53516)"/>
</clipPath>
</defs>
</svg>
